<svg xmlns="http://www.w3.org/2000/svg" width="1250" height="1070"><rect width="100%" height="100%" fill="white"/><style>text{font-family:system-ui;fill:#172033}.g{stroke:#e2e8f0}.l{fill:none;stroke-width:2}.r{fill:#fee2e2;opacity:.65}</style><text x="82" y="29" font-size="21" font-weight="700">Latest GLIDE: dx, dy, vx, vy and altitude control</text>
<rect class="r" x="1182.9" y="58" width="34.1" height="190"/>
<text x="82" y="48" font-size="16" font-weight="650">Image-plane error</text>
<line class="g" x1="82.0" y1="58" x2="82.0" y2="248"/><text x="82.0" y="266" text-anchor="middle" font-size="11">0.0</text>
<line class="g" x1="309.0" y1="58" x2="309.0" y2="248"/><text x="309.0" y="266" text-anchor="middle" font-size="11">1.3</text>
<line class="g" x1="536.0" y1="58" x2="536.0" y2="248"/><text x="536.0" y="266" text-anchor="middle" font-size="11">2.7</text>
<line class="g" x1="763.0" y1="58" x2="763.0" y2="248"/><text x="763.0" y="266" text-anchor="middle" font-size="11">4.0</text>
<line class="g" x1="990.0" y1="58" x2="990.0" y2="248"/><text x="990.0" y="266" text-anchor="middle" font-size="11">5.3</text>
<line class="g" x1="1217.0" y1="58" x2="1217.0" y2="248"/><text x="1217.0" y="266" text-anchor="middle" font-size="11">6.7</text>
<line class="g" x1="82" y1="248.0" x2="1217" y2="248.0"/><text x="74" y="252.0" text-anchor="end" font-size="11">-0.94</text>
<line class="g" x1="82" y1="200.5" x2="1217" y2="200.5"/><text x="74" y="204.5" text-anchor="end" font-size="11">-0.67</text>
<line class="g" x1="82" y1="153.0" x2="1217" y2="153.0"/><text x="74" y="157.0" text-anchor="end" font-size="11">-0.41</text>
<line class="g" x1="82" y1="105.5" x2="1217" y2="105.5"/><text x="74" y="109.5" text-anchor="end" font-size="11">-0.14</text>
<line class="g" x1="82" y1="58.0" x2="1217" y2="58.0"/><text x="74" y="62.0" text-anchor="end" font-size="11">0.12</text>
<path class="l" stroke="#dc2626" d="M82.0,192.4 L85.3,192.4 L88.7,192.4 L92.1,192.4 L95.5,192.4 L98.9,192.4 L102.3,192.4 L105.7,192.4 L109.1,192.4 L112.5,191.8 L115.9,191.8 L119.4,191.0 L122.8,191.0 L126.2,190.2 L129.6,189.0 L133.0,189.0 L136.4,187.6 L139.8,187.6 L143.2,185.9 L146.6,184.0 L150.0,184.0 L153.4,181.7 L156.9,181.7 L160.3,179.2 L163.7,176.4 L167.1,176.4 L170.5,173.6 L173.9,173.6 L177.3,170.8 L180.7,167.4 L184.2,167.4 L187.5,164.0 L190.9,164.0 L194.3,160.7 L197.8,157.0 L201.2,157.0 L204.6,153.7 L208.0,153.7 L211.4,149.7 L214.8,146.4 L218.2,146.4 L221.6,142.4 L225.0,142.4 L228.4,139.1 L231.8,135.7 L235.3,135.7 L238.7,132.3 L242.1,129.2 L245.5,129.2 L248.9,126.4 L252.3,126.4 L255.7,124.2 L259.1,121.9 L262.5,121.9 L265.9,120.0 L269.4,120.0 L272.8,118.6 L276.2,116.9 L279.6,116.9 L283.0,116.3 L286.4,116.3 L289.8,115.5 L293.2,115.2 L296.6,115.2 L300.0,115.2 L303.4,115.2 L306.8,115.2 L310.2,115.7 L313.7,115.7 L317.1,116.3 L320.5,116.3 L323.9,117.4 L327.3,118.0 L330.7,118.0 L334.2,119.1 L337.6,119.1 L340.9,120.8 L344.3,121.9 L347.7,121.9 L351.2,123.0 L354.6,123.0 L358.0,124.2 L361.4,125.6 L364.8,125.6 L368.2,126.4 L371.6,127.5 L375.0,127.5 L378.4,128.4 L381.8,128.4 L385.3,128.7 L388.7,128.9 L392.1,128.9 L395.5,128.9 L398.9,128.9 L402.3,128.7 L405.7,128.4 L409.1,128.4 L412.5,127.3 L415.9,127.3 L419.3,126.1 L422.7,125.0 L426.1,125.0 L429.6,123.3 L433.0,123.3 L436.4,121.4 L439.8,119.4 L443.2,119.4 L446.6,117.2 L450.0,114.6 L453.4,114.6 L456.8,112.1 L460.2,112.1 L463.6,109.6 L467.1,106.8 L470.5,106.8 L473.9,104.2 L477.3,104.2 L480.7,101.4 L484.1,98.9 L487.5,98.9 L490.9,96.4 L494.3,96.4 L497.7,94.1 L501.2,91.9 L504.6,91.9 L508.0,89.9 L511.4,89.9 L514.8,88.0 L518.2,86.8 L521.6,86.8 L525.0,85.1 L528.4,85.1 L531.8,84.6 L535.2,83.5 L538.6,83.5 L542.1,83.2 L545.5,83.2 L548.9,82.9 L552.3,82.9 L555.7,82.9 L559.1,83.5 L562.5,83.5 L565.9,84.0 L569.3,84.6 L572.7,84.6 L576.1,85.7 L579.5,85.7 L583.0,86.8 L586.4,88.2 L589.8,88.2 L593.2,89.4 L596.6,89.4 L600.0,91.0 L603.4,92.7 L606.8,92.7 L610.2,93.8 L613.6,95.5 L617.0,95.5 L620.5,96.9 L623.9,96.9 L627.3,98.3 L630.7,99.5 L634.1,99.5 L637.5,100.6 L640.9,100.6 L644.3,101.4 L647.7,102.0 L651.1,102.0 L654.5,102.6 L658.0,102.6 L661.4,103.1 L664.8,103.1 L668.2,103.1 L671.6,102.8 L675.0,102.8 L678.4,102.3 L681.8,101.7 L685.2,101.7 L688.6,100.6 L692.0,100.6 L695.5,99.5 L698.9,98.3 L702.3,98.3 L705.7,96.7 L709.1,95.0 L712.5,95.0 L715.9,93.0 L719.3,93.0 L722.7,91.3 L726.1,89.1 L729.5,89.1 L732.9,87.4 L736.4,87.4 L739.8,85.1 L743.2,83.5 L746.6,83.5 L750.0,81.2 L753.4,81.2 L756.8,79.5 L760.2,77.8 L763.6,77.8 L767.0,76.4 L770.4,76.4 L773.9,75.0 L777.3,73.9 L780.7,73.9 L784.1,72.8 L787.5,72.8 L790.9,72.2 L794.3,71.7 L797.7,71.7 L801.1,71.1 L804.5,71.1 L807.9,71.1 L811.3,71.4 L814.8,71.4 L818.2,71.4 L821.6,72.2 L825.0,72.2 L828.4,73.1 L831.8,73.1 L835.2,73.9 L838.6,75.0 L842.0,75.0 L845.4,76.2 L848.9,76.2 L852.3,77.3 L855.7,78.7 L859.1,78.7 L862.5,80.1 L865.9,80.1 L869.3,81.5 L872.7,82.6 L876.1,82.6 L879.5,84.0 L882.9,84.0 L886.3,85.1 L889.7,86.3 L893.2,86.3 L896.6,87.4 L900.0,87.4 L903.4,88.2 L906.8,88.8 L910.2,88.8 L913.6,89.4 L917.0,89.6 L920.4,89.6 L923.8,90.2 L927.2,90.2 L930.7,90.2 L934.1,90.2 L937.5,90.2 L940.9,89.9 L944.3,89.9 L947.7,89.4 L951.1,89.1 L954.5,89.1 L957.9,88.5 L961.3,88.5 L964.8,87.4 L968.2,86.5 L971.6,86.5 L975.0,85.7 L978.4,85.7 L981.8,84.6 L985.2,83.5 L988.6,83.5 L992.0,82.6 L995.4,82.6 L998.8,81.2 L1002.2,80.1 L1005.6,80.1 L1009.1,79.2 L1012.5,79.2 L1015.9,78.1 L1019.3,77.3 L1022.7,77.3 L1026.1,76.4 L1029.5,75.9 L1032.9,75.9 L1036.3,75.0 L1039.7,75.0 L1043.1,74.8 L1046.6,74.8 L1050.0,74.8 L1053.4,74.8 L1056.8,74.8 L1060.2,75.0 L1063.6,75.3 L1067.0,75.3 L1070.4,75.9 L1073.8,75.9 L1077.2,76.2 L1080.6,77.0 L1084.1,77.0 L1087.5,77.6 L1090.9,77.6 L1094.3,78.4 L1097.7,78.7 L1101.1,78.7 L1104.5,79.5 L1107.9,79.5 L1111.3,80.4 L1114.8,81.5 L1118.1,81.5 L1121.6,82.6 L1125.0,82.6 L1128.4,83.7 L1131.8,85.1 L1135.2,85.1 L1138.6,86.3 L1142.0,86.3 L1145.4,87.1 L1148.8,88.5 L1152.2,88.5 L1155.6,89.4 L1159.0,89.4 L1162.5,90.2 L1165.9,91.0 L1169.3,91.0 L1172.7,91.9 L1176.1,92.7 L1179.5,92.7 L1182.9,93.3 L1186.3,93.3 L1189.8,93.8 L1193.1,94.4 L1196.5,94.4 L1200.0,94.7 L1203.4,94.7 L1206.8,95.0 L1210.2,94.7 L1213.6,94.7 L1217.0,94.7"/>
<line x1="797" y1="72" x2="817" y2="72" stroke="#dc2626" stroke-width="2"/><text x="821" y="76" font-size="10">dx</text>
<path class="l" stroke="#2563eb" d="M82.0,157.8 L85.3,157.8 L88.7,157.8 L92.1,157.8 L95.5,157.8 L98.9,157.8 L102.3,157.4 L105.7,157.4 L109.1,157.4 L112.5,156.7 L115.9,156.7 L119.4,155.5 L122.8,155.5 L126.2,153.7 L129.6,151.8 L133.0,151.8 L136.4,149.2 L139.8,149.2 L143.2,146.9 L146.6,143.9 L150.0,143.9 L153.4,142.4 L156.9,142.4 L160.3,140.2 L163.7,139.4 L167.1,139.4 L170.5,139.1 L173.9,139.1 L177.3,139.4 L180.7,140.2 L184.2,140.2 L187.5,141.3 L190.9,141.3 L194.3,142.4 L197.8,143.9 L201.2,143.9 L204.6,144.7 L208.0,144.7 L211.4,144.7 L214.8,144.3 L218.2,144.3 L221.6,143.2 L225.0,143.2 L228.4,140.9 L231.8,138.3 L235.3,138.3 L238.7,135.3 L242.1,132.3 L245.5,132.3 L248.9,128.6 L252.3,128.6 L255.7,125.6 L259.1,122.6 L262.5,122.6 L265.9,119.6 L269.4,119.6 L272.8,117.3 L276.2,115.8 L279.6,115.8 L283.0,113.6 L286.4,113.6 L289.8,112.8 L293.2,112.1 L296.6,112.1 L300.0,111.0 L303.4,111.0 L306.8,109.9 L310.2,109.1 L313.7,109.1 L317.1,108.4 L320.5,108.4 L323.9,107.6 L327.3,106.1 L330.7,106.1 L334.2,105.4 L337.6,105.4 L340.9,104.6 L344.3,103.9 L347.7,103.9 L351.2,103.1 L354.6,103.1 L358.0,103.1 L361.4,102.4 L364.8,102.4 L368.2,103.1 L371.6,103.1 L375.0,103.1 L378.4,103.1 L381.8,103.1 L385.3,103.9 L388.7,104.2 L392.1,104.2 L395.5,104.6 L398.9,104.6 L402.3,105.4 L405.7,106.1 L409.1,106.1 L412.5,106.1 L415.9,106.1 L419.3,106.9 L422.7,106.9 L426.1,106.9 L429.6,106.9 L433.0,106.9 L436.4,106.5 L439.8,106.5 L443.2,106.5 L446.6,106.1 L450.0,105.4 L453.4,105.4 L456.8,105.0 L460.2,105.0 L463.6,104.2 L467.1,103.1 L470.5,103.1 L473.9,102.0 L477.3,102.0 L480.7,101.2 L484.1,99.7 L487.5,99.7 L490.9,98.2 L494.3,98.2 L497.7,96.7 L501.2,95.3 L504.6,95.3 L508.0,93.0 L511.4,93.0 L514.8,90.8 L518.2,88.5 L521.6,88.5 L525.0,86.3 L528.4,86.3 L531.8,83.6 L535.2,81.0 L538.6,81.0 L542.1,78.8 L545.5,78.8 L548.9,76.9 L552.3,75.0 L555.7,75.0 L559.1,73.9 L562.5,73.9 L565.9,73.2 L569.3,72.8 L572.7,72.8 L576.1,72.8 L579.5,72.8 L583.0,73.2 L586.4,73.9 L589.8,73.9 L593.2,75.0 L596.6,75.0 L600.0,76.2 L603.4,77.7 L606.8,77.7 L610.2,78.4 L613.6,79.2 L617.0,79.2 L620.5,79.9 L623.9,79.9 L627.3,80.3 L630.7,80.3 L634.1,80.3 L637.5,80.3 L640.9,80.3 L644.3,80.3 L647.7,80.3 L651.1,80.3 L654.5,80.3 L658.0,80.3 L661.4,81.0 L664.8,82.1 L668.2,82.1 L671.6,83.3 L675.0,83.3 L678.4,85.1 L681.8,86.6 L685.2,86.6 L688.6,88.5 L692.0,88.5 L695.5,90.4 L698.9,91.5 L702.3,91.5 L705.7,92.6 L709.1,93.0 L712.5,93.0 L715.9,93.4 L719.3,93.4 L722.7,93.0 L726.1,92.3 L729.5,92.3 L732.9,90.8 L736.4,90.8 L739.8,89.6 L743.2,88.5 L746.6,88.5 L750.0,87.4 L753.4,87.4 L756.8,86.3 L760.2,85.5 L763.6,85.5 L767.0,85.1 L770.4,85.1 L773.9,84.8 L777.3,84.8 L780.7,84.8 L784.1,85.1 L787.5,85.1 L790.9,85.5 L794.3,85.5 L797.7,85.5 L801.1,85.9 L804.5,85.9 L807.9,86.3 L811.3,86.6 L814.8,86.6 L818.2,87.0 L821.6,87.4 L825.0,87.4 L828.4,88.1 L831.8,88.1 L835.2,88.5 L838.6,89.6 L842.0,89.6 L845.4,90.4 L848.9,90.4 L852.3,91.1 L855.7,91.9 L859.1,91.9 L862.5,93.0 L865.9,93.0 L869.3,93.8 L872.7,94.5 L876.1,94.5 L879.5,96.0 L882.9,96.0 L886.3,97.1 L889.7,99.0 L893.2,99.0 L896.6,101.2 L900.0,101.2 L903.4,103.9 L906.8,106.5 L910.2,106.5 L913.6,108.7 L917.0,110.6 L920.4,110.6 L923.8,112.1 L927.2,112.1 L930.7,113.6 L934.1,114.7 L937.5,114.7 L940.9,116.6 L944.3,116.6 L947.7,118.1 L951.1,120.3 L954.5,120.3 L957.9,121.5 L961.3,121.5 L964.8,121.8 L968.2,121.1 L971.6,121.1 L975.0,120.7 L978.4,120.7 L981.8,121.1 L985.2,123.0 L988.6,123.0 L992.0,127.8 L995.4,127.8 L998.8,135.3 L1002.2,145.0 L1005.6,145.0 L1009.1,156.3 L1012.5,156.3 L1015.9,167.5 L1019.3,177.6 L1022.7,177.6 L1026.1,185.5 L1029.5,191.1 L1032.9,191.1 L1036.3,193.7 L1039.7,193.7 L1043.1,194.1 L1046.6,192.6 L1050.0,192.6 L1053.4,190.3 L1056.8,190.3 L1060.2,188.1 L1063.6,186.6 L1067.0,186.6 L1070.4,186.2 L1073.8,186.2 L1077.2,187.3 L1080.6,190.3 L1084.1,190.3 L1087.5,194.5 L1090.9,194.5 L1094.3,199.7 L1097.7,204.9 L1101.1,204.9 L1104.5,209.8 L1107.9,209.8 L1111.3,213.6 L1114.8,216.2 L1118.1,216.2 L1121.6,218.0 L1125.0,218.0 L1128.4,218.4 L1131.8,218.0 L1135.2,218.0 L1138.6,217.3 L1142.0,217.3 L1145.4,216.6 L1148.8,216.6 L1152.2,216.6 L1155.6,216.9 L1159.0,216.9 L1162.5,218.0 L1165.9,220.3 L1169.3,220.3 L1172.7,223.3 L1176.1,226.7 L1179.5,226.7 L1182.9,230.0 L1186.3,230.0 L1189.8,231.9 L1193.1,233.0 L1196.5,233.0 L1200.0,234.1 L1203.4,234.1 L1206.8,234.5 L1210.2,234.9 L1213.6,234.9 L1217.0,234.9"/>
<line x1="902" y1="72" x2="922" y2="72" stroke="#2563eb" stroke-width="2"/><text x="926" y="76" font-size="10">dy</text>
<text x="18" y="153.0" transform="rotate(-90 18 153.0)" text-anchor="middle" font-size="12">normalized error</text>
<rect class="r" x="1182.9" y="305" width="34.1" height="190"/>
<text x="82" y="295" font-size="16" font-weight="650">Forward velocity</text>
<line class="g" x1="82.0" y1="305" x2="82.0" y2="495"/><text x="82.0" y="513" text-anchor="middle" font-size="11">0.0</text>
<line class="g" x1="309.0" y1="305" x2="309.0" y2="495"/><text x="309.0" y="513" text-anchor="middle" font-size="11">1.3</text>
<line class="g" x1="536.0" y1="305" x2="536.0" y2="495"/><text x="536.0" y="513" text-anchor="middle" font-size="11">2.7</text>
<line class="g" x1="763.0" y1="305" x2="763.0" y2="495"/><text x="763.0" y="513" text-anchor="middle" font-size="11">4.0</text>
<line class="g" x1="990.0" y1="305" x2="990.0" y2="495"/><text x="990.0" y="513" text-anchor="middle" font-size="11">5.3</text>
<line class="g" x1="1217.0" y1="305" x2="1217.0" y2="495"/><text x="1217.0" y="513" text-anchor="middle" font-size="11">6.7</text>
<line class="g" x1="82" y1="495.0" x2="1217" y2="495.0"/><text x="74" y="499.0" text-anchor="end" font-size="11">-0.40</text>
<line class="g" x1="82" y1="447.5" x2="1217" y2="447.5"/><text x="74" y="451.5" text-anchor="end" font-size="11">1.05</text>
<line class="g" x1="82" y1="400.0" x2="1217" y2="400.0"/><text x="74" y="404.0" text-anchor="end" font-size="11">2.50</text>
<line class="g" x1="82" y1="352.5" x2="1217" y2="352.5"/><text x="74" y="356.5" text-anchor="end" font-size="11">3.95</text>
<line class="g" x1="82" y1="305.0" x2="1217" y2="305.0"/><text x="74" y="309.0" text-anchor="end" font-size="11">5.40</text>
<path class="l" stroke="#dc2626" d="M82.0,444.5 L85.3,444.5 L88.7,444.5 L92.1,444.5 L95.5,444.5 L98.9,444.5 L102.3,444.3 L105.7,444.3 L109.1,444.3 L112.5,443.4 L115.9,443.4 L119.4,442.2 L122.8,442.2 L126.2,440.5 L129.6,438.5 L133.0,438.5 L136.4,436.0 L139.8,436.0 L143.2,433.4 L146.6,430.2 L150.0,430.2 L153.4,427.6 L156.9,427.6 L160.3,424.3 L163.7,421.7 L167.1,421.7 L170.5,419.2 L173.9,419.2 L177.3,417.2 L180.7,415.0 L184.2,415.0 L187.5,413.1 L190.9,413.1 L194.3,411.3 L197.8,409.7 L201.2,409.7 L204.6,407.8 L208.0,407.8 L211.4,405.0 L214.8,402.5 L218.2,402.5 L221.6,399.0 L225.0,399.0 L228.4,395.1 L231.8,390.9 L235.3,390.9 L238.7,386.4 L242.1,382.1 L245.5,382.1 L248.9,377.4 L252.3,377.4 L255.7,373.6 L259.1,369.8 L262.5,369.8 L265.9,366.2 L269.4,366.2 L272.8,363.5 L276.2,361.3 L279.6,361.3 L283.0,359.2 L286.4,359.2 L289.8,358.1 L293.2,357.4 L296.6,357.4 L300.0,356.6 L303.4,356.6 L306.8,355.8 L310.2,355.7 L313.7,355.7 L317.1,355.6 L320.5,355.6 L323.9,356.0 L327.3,355.5 L330.7,355.5 L334.2,356.0 L337.6,356.0 L340.9,356.9 L344.3,357.4 L347.7,357.4 L351.2,358.0 L354.6,358.0 L358.0,358.9 L361.4,359.8 L364.8,359.8 L368.2,360.9 L371.6,361.8 L375.0,361.8 L378.4,362.6 L381.8,362.6 L385.3,363.2 L388.7,363.6 L392.1,363.6 L395.5,363.8 L398.9,363.8 L402.3,363.9 L405.7,364.0 L409.1,364.0 L412.5,363.1 L415.9,363.1 L419.3,362.6 L422.7,361.6 L426.1,361.6 L429.6,360.2 L433.0,360.2 L436.4,358.4 L439.8,356.8 L443.2,356.8 L446.6,354.8 L450.0,352.4 L453.4,352.4 L456.8,350.2 L460.2,350.2 L463.6,347.8 L467.1,345.0 L470.5,345.0 L473.9,342.4 L477.3,342.4 L480.7,339.9 L484.1,337.1 L487.5,337.1 L490.9,334.3 L494.3,334.3 L497.7,331.7 L501.2,329.1 L504.6,329.1 L508.0,326.1 L511.4,326.1 L514.8,323.2 L518.2,320.7 L521.6,320.7 L525.0,318.2 L528.4,318.2 L531.8,318.1 L535.2,318.1 L538.6,318.1 L542.1,318.1 L545.5,318.1 L548.9,318.1 L552.3,318.1 L555.7,318.1 L559.1,318.1 L562.5,318.1 L565.9,318.2 L569.3,318.2 L572.7,318.2 L576.1,318.3 L579.5,318.3 L583.0,318.8 L586.4,319.5 L589.8,319.5 L593.2,319.9 L596.6,319.9 L600.0,321.0 L603.4,322.3 L606.8,322.3 L610.2,323.3 L613.6,324.9 L617.0,324.9 L620.5,326.3 L623.9,326.3 L627.3,327.6 L630.7,328.7 L634.1,328.7 L637.5,329.8 L640.9,329.8 L644.3,330.6 L647.7,331.2 L651.1,331.2 L654.5,331.7 L658.0,331.7 L661.4,332.3 L664.8,332.4 L668.2,332.4 L671.6,332.3 L675.0,332.3 L678.4,332.1 L681.8,332.0 L685.2,332.0 L688.6,331.7 L692.0,331.7 L695.5,331.6 L698.9,331.2 L702.3,331.2 L705.7,330.5 L709.1,329.5 L712.5,329.5 L715.9,328.4 L719.3,328.4 L722.7,327.0 L726.1,325.0 L729.5,325.0 L732.9,322.9 L736.4,322.9 L739.8,320.7 L743.2,319.0 L746.6,319.0 L750.0,318.2 L753.4,318.2 L756.8,318.2 L760.2,318.2 L763.6,318.2 L767.0,318.1 L770.4,318.1 L773.9,318.1 L777.3,318.1 L780.7,318.1 L784.1,318.1 L787.5,318.1 L790.9,318.6 L794.3,319.0 L797.7,319.0 L801.1,319.7 L804.5,319.7 L807.9,319.9 L811.3,319.9 L814.8,319.9 L818.2,320.2 L821.6,319.9 L825.0,319.9 L828.4,319.9 L831.8,319.9 L835.2,319.8 L838.6,320.3 L842.0,320.3 L845.4,320.6 L848.9,320.6 L852.3,321.0 L855.7,321.6 L859.1,321.6 L862.5,322.7 L865.9,322.7 L869.3,323.6 L872.7,324.5 L876.1,324.5 L879.5,326.3 L882.9,326.3 L886.3,327.7 L889.7,329.9 L893.2,329.9 L896.6,332.4 L900.0,332.4 L903.4,335.2 L906.8,337.9 L910.2,337.9 L913.6,340.3 L917.0,342.2 L920.4,342.2 L923.8,343.9 L927.2,343.9 L930.7,345.4 L934.1,346.5 L937.5,346.5 L940.9,348.3 L944.3,348.3 L947.7,349.7 L951.1,351.9 L954.5,351.9 L957.9,352.9 L961.3,352.9 L964.8,353.1 L968.2,352.2 L971.6,352.2 L975.0,351.7 L978.4,351.7 L981.8,351.9 L985.2,353.8 L988.6,353.8 L992.0,358.8 L995.4,358.8 L998.8,366.6 L1002.2,376.8 L1005.6,376.8 L1009.1,388.5 L1012.5,388.5 L1015.9,400.1 L1019.3,410.3 L1022.7,410.3 L1026.1,418.1 L1029.5,423.6 L1032.9,423.6 L1036.3,426.2 L1039.7,426.2 L1043.1,426.6 L1046.6,425.1 L1050.0,425.1 L1053.4,422.9 L1056.8,422.9 L1060.2,420.7 L1063.6,419.3 L1067.0,419.3 L1070.4,418.9 L1073.8,418.9 L1077.2,420.0 L1080.6,422.9 L1084.1,422.9 L1087.5,426.9 L1090.9,426.9 L1094.3,431.9 L1097.7,436.8 L1101.1,436.8 L1104.5,441.3 L1107.9,441.3 L1111.3,444.8 L1114.8,447.2 L1118.1,447.2 L1121.6,448.9 L1125.0,448.9 L1128.4,449.2 L1131.8,448.9 L1135.2,448.9 L1138.6,448.3 L1142.0,448.3 L1145.4,447.7 L1148.8,447.7 L1152.2,447.7 L1155.6,448.1 L1159.0,448.1 L1162.5,449.2 L1165.9,451.2 L1169.3,451.2 L1172.7,453.9 L1176.1,457.0 L1179.5,457.0 L1182.9,465.5 L1186.3,465.5 L1189.8,465.5 L1193.1,465.5 L1196.5,465.5 L1200.0,465.5 L1203.4,465.5 L1206.8,465.5 L1210.2,465.5 L1213.6,465.5 L1217.0,465.5"/>
<line x1="797" y1="319" x2="817" y2="319" stroke="#dc2626" stroke-width="2"/><text x="821" y="323" font-size="10">vx setpoint</text>
<path class="l" stroke="#2563eb" d="M85.3,481.9 L88.7,481.9 L92.1,481.9 L95.5,481.9 L98.9,481.9 L102.3,481.9 L105.7,481.9 L109.1,481.9 L112.5,481.9 L115.9,481.9 L119.4,481.9 L122.8,481.9 L126.2,481.9 L129.6,481.9 L133.0,481.9 L136.4,481.9 L139.8,481.9 L143.2,481.9 L146.6,481.9 L150.0,481.9 L153.4,481.9 L156.9,481.9 L160.3,481.9 L163.7,481.9 L167.1,481.9 L170.5,481.9 L173.9,481.9 L177.3,481.9 L180.7,481.9 L184.2,481.9 L187.5,481.9 L190.9,481.9 L194.3,481.9 L197.8,481.9 L201.2,481.9 L204.6,481.9 L208.0,481.9 L211.4,481.9 L214.8,481.9 L218.2,481.9 L221.6,481.9 L225.0,481.9 L228.4,481.9 L231.8,481.9 L235.3,481.9 L238.7,481.9 L242.1,481.9 L245.5,481.9 L248.9,481.9 L252.3,481.9 L255.7,481.9 L259.1,481.9 L262.5,481.9 L265.9,481.9 L269.4,481.9 L272.8,481.9 L276.2,481.9 L279.6,481.9 L283.0,481.9 L286.4,481.9 L289.8,481.9 L293.2,481.9 L296.6,481.9 L300.0,481.9 L303.4,481.9 L306.8,481.9 L310.2,481.9 L313.7,481.9 L317.1,481.9 L320.5,481.9 L323.9,481.9 L327.3,481.9 L330.7,481.9 L334.2,481.9 L337.6,481.9 L340.9,481.9 L344.3,481.9 L347.7,481.9 L351.2,481.9 L354.6,481.9 L358.0,481.9 L361.4,481.9 L364.8,481.9 L368.2,481.9 L371.6,481.9 L375.0,481.9 L378.4,481.9 L381.8,481.9 L385.3,481.9 L388.7,481.9 L392.1,481.9 L395.5,481.9 L398.9,481.9 L402.3,481.9 L405.7,481.9 L409.1,481.9 L412.5,481.9 L415.9,481.9 L419.3,481.9 L422.7,481.9 L426.1,481.9 L429.6,481.9 L433.0,481.9 L436.4,481.9 L439.8,481.9 L443.2,481.9 L446.6,481.9 L450.0,481.9 L453.4,481.9 L456.8,481.9 L460.2,481.9 L463.6,481.9 L467.1,481.9 L470.5,481.9 L473.9,481.9 L477.3,481.9 L480.7,481.9 L484.1,481.9 L487.5,481.9 L490.9,481.9 L494.3,481.9 L497.7,481.9 L501.2,481.9 L504.6,481.9 L508.0,481.9 L511.4,481.9 L514.8,481.9 L518.2,481.9 L521.6,481.9 L525.0,481.9 L528.4,481.9 L531.8,481.9 L535.2,481.9 L538.6,481.9 L542.1,481.9 L545.5,481.9 L548.9,481.9 L552.3,481.9 L555.7,481.9 L559.1,481.9 L562.5,481.9 L565.9,481.9 L569.3,481.9 L572.7,481.9 L576.1,481.9 L579.5,481.9 L583.0,481.9 L586.4,481.9 L589.8,481.9 L593.2,481.9 L596.6,481.9 L600.0,481.9 L603.4,481.9 L606.8,481.9 L610.2,481.9 L613.6,481.9 L617.0,481.9 L620.5,481.9 L623.9,481.9 L627.3,481.9 L630.7,481.9 L634.1,481.9 L637.5,481.9 L640.9,481.9 L644.3,481.9 L647.7,481.9 L651.1,481.9 L654.5,481.9 L658.0,481.9 L661.4,481.9 L664.8,481.9 L668.2,481.9 L671.6,481.9 L675.0,481.9 L678.4,481.9 L681.8,481.9 L685.2,481.9 L688.6,481.9 L692.0,481.9 L695.5,481.9 L698.9,481.9 L702.3,481.9 L705.7,481.9 L709.1,481.9 L712.5,481.9 L715.9,481.9 L719.3,481.9 L722.7,481.9 L726.1,481.9 L729.5,481.9 L732.9,481.9 L736.4,481.9 L739.8,481.9 L743.2,481.9 L746.6,481.9 L750.0,481.9 L753.4,481.9 L756.8,481.9 L760.2,481.9 L763.6,481.9 L767.0,481.9 L770.4,481.9 L773.9,481.9 L777.3,481.9 L780.7,481.9 L784.1,481.9 L787.5,481.9 L790.9,481.9 L794.3,481.9 L797.7,481.9 L801.1,481.9 L804.5,481.9 L807.9,481.9 L811.3,481.9 L814.8,481.9 L818.2,481.9 L821.6,481.9 L825.0,481.9 L828.4,481.9 L831.8,481.9 L835.2,481.9 L838.6,481.9 L842.0,481.9 L845.4,481.9 L848.9,481.9 L852.3,388.7 L855.7,421.3 L859.1,421.3 L862.5,442.5 L865.9,442.5 L869.3,456.3 L872.7,465.3 L876.1,465.3 L879.5,471.1 L882.9,471.1 L886.3,474.9 L889.7,477.3 L893.2,477.3 L896.6,478.9 L900.0,478.9 L903.4,480.0 L906.8,480.6 L910.2,480.6 L913.6,402.5 L917.0,430.3 L920.4,430.3 L923.8,448.4 L927.2,448.4 L930.7,460.1 L934.1,467.7 L937.5,467.7 L940.9,472.7 L944.3,472.7 L947.7,475.9 L951.1,409.9 L954.5,409.9 L957.9,367.1 L961.3,367.1 L964.8,407.2 L968.2,433.4 L971.6,433.4 L975.0,385.7 L978.4,385.7 L981.8,354.7 L985.2,399.2 L988.6,399.2 L992.0,428.2 L995.4,428.2 L998.8,447.0 L1002.2,402.0 L1005.6,402.0 L1009.1,429.9 L1012.5,429.9 L1015.9,389.1 L1019.3,421.6 L1022.7,421.6 L1026.1,348.8 L1029.5,349.3 L1032.9,349.3 L1036.3,349.6 L1039.7,349.6 L1043.1,352.3 L1046.6,354.6 L1050.0,354.6 L1053.4,358.8 L1056.8,358.8 L1060.2,364.1 L1063.6,405.3 L1067.0,405.3 L1070.4,432.1 L1073.8,432.1 L1077.2,449.5 L1080.6,425.9 L1084.1,425.9 L1087.5,410.5 L1090.9,410.5 L1094.3,402.1 L1097.7,398.5 L1101.1,398.5 L1104.5,396.1 L1107.9,396.1 L1111.3,394.6 L1114.8,395.2 L1118.1,395.2 L1121.6,395.6 L1125.0,395.6 L1128.4,395.9 L1131.8,399.3 L1135.2,399.3 L1138.6,403.3 L1142.0,403.3 L1145.4,405.9 L1148.8,409.0 L1152.2,409.0 L1155.6,411.0 L1159.0,411.0 L1162.5,435.8 L1165.9,427.9 L1169.3,427.9 L1172.7,425.3 L1176.1,421.1 L1179.5,421.1 L1182.9,421.1 L1186.3,421.1 L1189.8,421.1 L1193.1,421.1 L1196.5,421.1 L1200.0,421.1 L1203.4,421.1 L1206.8,421.1 L1210.2,421.1 L1213.6,421.1 L1217.0,421.1"/>
<line x1="902" y1="319" x2="922" y2="319" stroke="#2563eb" stroke-width="2"/><text x="926" y="323" font-size="10">vx measured</text>
<text x="18" y="400.0" transform="rotate(-90 18 400.0)" text-anchor="middle" font-size="12">m/s</text>
<rect class="r" x="1182.9" y="552" width="34.1" height="190"/>
<text x="82" y="542" font-size="16" font-weight="650">Vertical velocity</text>
<line class="g" x1="82.0" y1="552" x2="82.0" y2="742"/><text x="82.0" y="760" text-anchor="middle" font-size="11">0.0</text>
<line class="g" x1="309.0" y1="552" x2="309.0" y2="742"/><text x="309.0" y="760" text-anchor="middle" font-size="11">1.3</text>
<line class="g" x1="536.0" y1="552" x2="536.0" y2="742"/><text x="536.0" y="760" text-anchor="middle" font-size="11">2.7</text>
<line class="g" x1="763.0" y1="552" x2="763.0" y2="742"/><text x="763.0" y="760" text-anchor="middle" font-size="11">4.0</text>
<line class="g" x1="990.0" y1="552" x2="990.0" y2="742"/><text x="990.0" y="760" text-anchor="middle" font-size="11">5.3</text>
<line class="g" x1="1217.0" y1="552" x2="1217.0" y2="742"/><text x="1217.0" y="760" text-anchor="middle" font-size="11">6.7</text>
<line class="g" x1="82" y1="742.0" x2="1217" y2="742.0"/><text x="74" y="746.0" text-anchor="end" font-size="11">-3.26</text>
<line class="g" x1="82" y1="694.5" x2="1217" y2="694.5"/><text x="74" y="698.5" text-anchor="end" font-size="11">-2.32</text>
<line class="g" x1="82" y1="647.0" x2="1217" y2="647.0"/><text x="74" y="651.0" text-anchor="end" font-size="11">-1.38</text>
<line class="g" x1="82" y1="599.5" x2="1217" y2="599.5"/><text x="74" y="603.5" text-anchor="end" font-size="11">-0.43</text>
<line class="g" x1="82" y1="552.0" x2="1217" y2="552.0"/><text x="74" y="556.0" text-anchor="end" font-size="11">0.51</text>
<path class="l" stroke="#dc2626" d="M82.0,665.6 L85.3,665.6 L88.7,665.6 L92.1,665.6 L95.5,665.6 L98.9,665.6 L102.3,665.2 L105.7,665.2 L109.1,665.2 L112.5,664.5 L115.9,664.5 L119.4,663.3 L122.8,663.3 L126.2,661.3 L129.6,659.3 L133.0,659.3 L136.4,656.5 L139.8,656.5 L143.2,654.1 L146.6,650.9 L150.0,650.9 L153.4,649.2 L156.9,649.2 L160.3,646.8 L163.7,646.0 L167.1,646.0 L170.5,645.5 L173.9,645.5 L177.3,646.0 L180.7,646.8 L184.2,646.8 L187.5,648.0 L190.9,648.0 L194.3,649.2 L197.8,650.9 L201.2,650.9 L204.6,651.7 L208.0,651.7 L211.4,651.7 L214.8,651.3 L218.2,651.3 L221.6,650.1 L225.0,650.1 L228.4,647.6 L231.8,644.7 L235.3,644.7 L238.7,641.4 L242.1,638.1 L245.5,638.1 L248.9,633.9 L252.3,633.9 L255.7,630.5 L259.1,627.0 L262.5,627.0 L265.9,623.6 L269.4,623.6 L272.8,621.0 L276.2,619.3 L279.6,619.3 L283.0,616.7 L286.4,616.7 L289.8,615.8 L293.2,615.0 L296.6,615.0 L300.0,613.6 L303.4,613.6 L306.8,612.3 L310.2,611.5 L313.7,611.5 L317.1,610.6 L320.5,610.6 L323.9,609.7 L327.3,608.0 L330.7,608.0 L334.2,607.1 L337.6,607.1 L340.9,606.2 L344.3,605.3 L347.7,605.3 L351.2,604.4 L354.6,604.4 L358.0,604.4 L361.4,603.6 L364.8,603.6 L368.2,604.4 L371.6,604.4 L375.0,604.4 L378.4,604.4 L381.8,604.4 L385.3,605.3 L388.7,605.8 L392.1,605.8 L395.5,606.2 L398.9,606.2 L402.3,607.1 L405.7,608.0 L409.1,608.0 L412.5,608.0 L415.9,608.0 L419.3,608.8 L422.7,608.8 L426.1,608.8 L429.6,608.8 L433.0,608.8 L436.4,608.4 L439.8,608.4 L443.2,608.4 L446.6,608.0 L450.0,607.1 L453.4,607.1 L456.8,606.6 L460.2,606.6 L463.6,605.8 L467.1,604.4 L470.5,604.4 L473.9,603.1 L477.3,603.1 L480.7,602.2 L484.1,600.5 L487.5,600.5 L490.9,598.7 L494.3,598.7 L497.7,596.9 L501.2,595.1 L504.6,595.1 L508.0,592.5 L511.4,592.5 L514.8,589.8 L518.2,587.1 L521.6,587.1 L525.0,584.8 L528.4,584.8 L531.8,582.0 L535.2,579.3 L538.6,579.3 L542.1,576.9 L545.5,576.9 L548.9,574.9 L552.3,573.0 L555.7,573.0 L559.1,571.8 L562.5,571.8 L565.9,571.0 L569.3,570.6 L572.7,570.6 L576.1,570.6 L579.5,570.6 L583.0,571.0 L586.4,571.8 L589.8,571.8 L593.2,573.0 L596.6,573.0 L600.0,574.2 L603.4,575.7 L606.8,575.7 L610.2,576.5 L613.6,577.3 L617.0,577.3 L620.5,578.1 L623.9,578.1 L627.3,578.5 L630.7,578.5 L634.1,578.5 L637.5,578.5 L640.9,578.5 L644.3,578.5 L647.7,578.5 L651.1,578.5 L654.5,578.5 L658.0,578.5 L661.4,579.3 L664.8,580.5 L668.2,580.5 L671.6,581.6 L675.0,581.6 L678.4,583.6 L681.8,585.2 L685.2,585.2 L688.6,587.1 L692.0,587.1 L695.5,589.4 L698.9,590.7 L702.3,590.7 L705.7,592.0 L709.1,592.5 L712.5,592.5 L715.9,592.9 L719.3,592.9 L722.7,592.5 L726.1,591.6 L729.5,591.6 L732.9,589.8 L736.4,589.8 L739.8,588.5 L743.2,587.1 L746.6,587.1 L750.0,586.0 L753.4,586.0 L756.8,584.8 L760.2,584.0 L763.6,584.0 L767.0,583.6 L770.4,583.6 L773.9,583.2 L777.3,583.2 L780.7,583.2 L784.1,583.6 L787.5,583.6 L790.9,584.0 L794.3,584.0 L797.7,584.0 L801.1,584.4 L804.5,584.4 L807.9,584.8 L811.3,585.2 L814.8,585.2 L818.2,585.6 L821.6,586.0 L825.0,586.0 L828.4,586.8 L831.8,586.8 L835.2,587.1 L838.6,588.5 L842.0,588.5 L845.4,589.4 L848.9,589.4 L852.3,590.3 L855.7,591.2 L859.1,591.2 L862.5,592.5 L865.9,592.5 L869.3,593.4 L872.7,594.3 L876.1,594.3 L879.5,596.0 L882.9,596.0 L886.3,597.4 L889.7,599.6 L893.2,599.6 L896.6,602.2 L900.0,602.2 L903.4,605.3 L906.8,608.4 L910.2,608.4 L913.6,611.0 L917.0,613.2 L920.4,613.2 L923.8,615.0 L927.2,615.0 L930.7,616.7 L934.1,618.0 L937.5,618.0 L940.9,620.2 L944.3,620.2 L947.7,621.9 L951.1,624.5 L954.5,624.5 L957.9,625.8 L961.3,625.8 L964.8,626.2 L968.2,625.3 L971.6,625.3 L975.0,624.9 L978.4,624.9 L981.8,625.3 L985.2,627.5 L988.6,627.5 L992.0,633.0 L995.4,633.0 L998.8,641.4 L1002.2,652.1 L1005.6,652.1 L1009.1,664.1 L1012.5,664.1 L1015.9,675.6 L1019.3,685.7 L1022.7,685.7 L1026.1,693.2 L1029.5,698.5 L1032.9,698.5 L1036.3,700.9 L1039.7,700.9 L1043.1,701.2 L1046.6,699.8 L1050.0,699.8 L1053.4,697.8 L1056.8,697.8 L1060.2,695.7 L1063.6,694.3 L1067.0,694.3 L1070.4,693.9 L1073.8,693.9 L1077.2,695.0 L1080.6,697.8 L1084.1,697.8 L1087.5,701.5 L1090.9,701.5 L1094.3,706.3 L1097.7,710.9 L1101.1,710.9 L1104.5,715.1 L1107.9,715.1 L1111.3,718.3 L1114.8,720.4 L1118.1,720.4 L1121.6,722.0 L1125.0,722.0 L1128.4,722.3 L1131.8,722.0 L1135.2,722.0 L1138.6,721.4 L1142.0,721.4 L1145.4,720.8 L1148.8,720.8 L1152.2,720.8 L1155.6,721.1 L1159.0,721.1 L1162.5,722.0 L1165.9,723.8 L1169.3,723.8 L1172.7,726.2 L1176.1,728.9 L1179.5,728.9 L1182.9,728.9 L1186.3,728.9 L1189.8,728.9 L1193.1,728.9 L1196.5,728.9 L1200.0,728.9 L1203.4,728.9 L1206.8,728.9 L1210.2,728.9 L1213.6,728.9 L1217.0,728.9"/>
<line x1="797" y1="566" x2="817" y2="566" stroke="#dc2626" stroke-width="2"/><text x="821" y="570" font-size="10">vy setpoint</text>
<path class="l" stroke="#2563eb" d="M82.0,574.2 L85.3,574.2 L88.7,574.2 L92.1,574.2 L95.5,574.2 L98.9,574.2 L102.3,575.2 L105.7,575.2 L109.1,575.2 L112.5,575.2 L115.9,575.2 L119.4,575.2 L122.8,575.2 L126.2,577.2 L129.6,577.2 L133.0,577.2 L136.4,577.2 L139.8,577.2 L143.2,577.7 L146.6,577.7 L150.0,577.7 L153.4,577.7 L156.9,577.7 L160.3,577.7 L163.7,577.7 L167.1,577.7 L170.5,577.7 L173.9,577.7 L177.3,577.7 L180.7,580.7 L184.2,580.7 L187.5,580.7 L190.9,580.7 L194.3,580.7 L197.8,580.7 L201.2,582.2 L204.6,582.2 L208.0,582.2 L211.4,582.2 L214.8,582.2 L218.2,582.2 L221.6,583.8 L225.0,583.8 L228.4,583.8 L231.8,583.8 L235.3,583.8 L238.7,583.8 L242.1,587.8 L245.5,587.8 L248.9,587.8 L252.3,587.8 L255.7,587.8 L259.1,590.3 L262.5,590.3 L265.9,590.3 L269.4,590.3 L272.8,590.3 L276.2,590.3 L279.6,590.3 L283.0,591.8 L286.4,591.8 L289.8,591.8 L293.2,591.8 L296.6,591.8 L300.0,591.8 L303.4,591.8 L306.8,591.8 L310.2,595.8 L313.7,595.8 L317.1,595.8 L320.5,595.8 L323.9,595.8 L327.3,602.9 L330.7,602.9 L334.2,602.9 L337.6,602.9 L340.9,602.9 L344.3,602.9 L347.7,606.4 L351.2,606.4 L354.6,606.4 L358.0,606.4 L361.4,606.4 L364.8,606.4 L368.2,606.4 L371.6,610.0 L375.0,610.0 L378.4,610.0 L381.8,610.0 L385.3,610.0 L388.7,610.0 L392.1,611.5 L395.5,611.5 L398.9,611.5 L402.3,611.5 L405.7,613.0 L409.1,613.0 L412.5,613.0 L415.9,613.0 L419.3,613.0 L422.7,613.0 L426.1,613.0 L429.6,614.5 L433.0,614.5 L436.4,614.5 L439.8,614.5 L443.2,614.5 L446.6,615.0 L450.0,615.0 L453.4,615.0 L456.8,615.0 L460.2,615.0 L463.6,615.0 L467.1,615.0 L470.5,616.5 L473.9,616.5 L477.3,616.5 L480.7,616.5 L484.1,616.0 L487.5,616.0 L490.9,616.0 L494.3,616.0 L497.7,616.0 L501.2,616.0 L504.6,615.0 L508.0,615.0 L511.4,615.0 L514.8,615.0 L518.2,615.0 L521.6,614.5 L525.0,614.5 L528.4,614.5 L531.8,614.5 L535.2,614.5 L538.6,614.5 L542.1,614.5 L545.5,614.5 L548.9,614.5 L552.3,613.5 L555.7,613.5 L559.1,613.5 L562.5,611.5 L565.9,611.5 L569.3,611.5 L572.7,611.5 L576.1,611.5 L579.5,611.5 L583.0,606.4 L586.4,606.4 L589.8,606.4 L593.2,606.4 L596.6,603.4 L600.0,603.4 L603.4,603.4 L606.8,603.4 L610.2,601.9 L613.6,601.9 L617.0,601.9 L620.5,601.9 L623.9,601.9 L627.3,601.4 L630.7,601.4 L634.1,601.4 L637.5,601.4 L640.9,601.4 L644.3,601.4 L647.7,599.9 L651.1,599.9 L654.5,599.9 L658.0,599.9 L661.4,599.9 L664.8,599.9 L668.2,599.9 L671.6,592.8 L675.0,592.8 L678.4,592.8 L681.8,592.8 L685.2,592.8 L688.6,592.8 L692.0,583.8 L695.5,583.8 L698.9,583.8 L702.3,583.8 L705.7,583.8 L709.1,577.7 L712.5,577.7 L715.9,577.7 L719.3,577.7 L722.7,577.7 L726.1,577.7 L729.5,577.7 L732.9,577.7 L736.4,577.7 L739.8,577.7 L743.2,577.7 L746.6,577.7 L750.0,577.7 L753.4,577.7 L756.8,577.7 L760.2,577.7 L763.6,577.7 L767.0,577.7 L770.4,577.7 L773.9,577.7 L777.3,577.7 L780.7,577.7 L784.1,577.7 L787.5,577.7 L790.9,577.7 L794.3,577.7 L797.7,577.7 L801.1,575.2 L804.5,575.2 L807.9,575.2 L811.3,575.2 L814.8,575.2 L818.2,575.2 L821.6,575.2 L825.0,571.2 L828.4,571.2 L831.8,571.2 L835.2,571.2 L838.6,571.2 L842.0,569.1 L845.4,569.1 L848.9,569.1 L852.3,569.1 L855.7,569.1 L859.1,569.1 L862.5,569.1 L865.9,568.6 L869.3,568.6 L872.7,568.6 L876.1,568.6 L879.5,568.6 L882.9,569.6 L886.3,569.6 L889.7,569.6 L893.2,569.6 L896.6,570.1 L900.0,570.1 L903.4,570.1 L906.8,570.1 L910.2,567.6 L913.6,567.6 L917.0,567.6 L920.4,567.6 L923.8,567.6 L927.2,567.6 L930.7,565.6 L934.1,565.6 L937.5,565.6 L940.9,565.6 L944.3,565.6 L947.7,565.6 L951.1,565.1 L954.5,565.1 L957.9,565.1 L961.3,565.1 L964.8,565.1 L968.2,566.1 L971.6,566.1 L975.0,566.1 L978.4,566.1 L981.8,566.1 L985.2,567.6 L988.6,567.6 L992.0,567.6 L995.4,567.6 L998.8,567.6 L1002.2,567.6 L1005.6,570.1 L1009.1,570.1 L1012.5,570.1 L1015.9,570.1 L1019.3,570.1 L1022.7,570.1 L1026.1,572.7 L1029.5,572.7 L1032.9,572.7 L1036.3,572.7 L1039.7,572.7 L1043.1,572.7 L1046.6,572.7 L1050.0,574.7 L1053.4,574.7 L1056.8,574.7 L1060.2,574.7 L1063.6,576.7 L1067.0,576.7 L1070.4,576.7 L1073.8,576.7 L1077.2,576.7 L1080.6,576.7 L1084.1,576.7 L1087.5,576.7 L1090.9,577.7 L1094.3,577.7 L1097.7,577.7 L1101.1,577.7 L1104.5,577.7 L1107.9,577.7 L1111.3,577.7 L1114.8,577.7 L1118.1,577.7 L1121.6,577.7 L1125.0,579.2 L1128.4,579.2 L1131.8,579.2 L1135.2,579.2 L1138.6,579.2 L1142.0,583.2 L1145.4,583.2 L1148.8,583.2 L1152.2,583.2 L1155.6,583.2 L1159.0,583.2 L1162.5,590.8 L1165.9,590.8 L1169.3,590.8 L1172.7,590.8 L1176.1,590.8 L1179.5,590.8 L1182.9,600.4 L1186.3,600.4 L1189.8,600.4 L1193.1,600.4 L1196.5,600.4 L1200.0,606.9 L1203.4,606.9 L1206.8,606.9 L1210.2,606.9 L1213.6,606.9 L1217.0,606.9"/>
<line x1="902" y1="566" x2="922" y2="566" stroke="#2563eb" stroke-width="2"/><text x="926" y="570" font-size="10">vy measured</text>
<text x="18" y="647.0" transform="rotate(-90 18 647.0)" text-anchor="middle" font-size="12">m/s</text>
<rect class="r" x="1182.9" y="799" width="34.1" height="190"/>
<text x="82" y="789" font-size="16" font-weight="650">Altitude and throttle response</text>
<line class="g" x1="82.0" y1="799" x2="82.0" y2="989"/><text x="82.0" y="1007" text-anchor="middle" font-size="11">0.0</text>
<line class="g" x1="309.0" y1="799" x2="309.0" y2="989"/><text x="309.0" y="1007" text-anchor="middle" font-size="11">1.3</text>
<line class="g" x1="536.0" y1="799" x2="536.0" y2="989"/><text x="536.0" y="1007" text-anchor="middle" font-size="11">2.7</text>
<line class="g" x1="763.0" y1="799" x2="763.0" y2="989"/><text x="763.0" y="1007" text-anchor="middle" font-size="11">4.0</text>
<line class="g" x1="990.0" y1="799" x2="990.0" y2="989"/><text x="990.0" y="1007" text-anchor="middle" font-size="11">5.3</text>
<line class="g" x1="1217.0" y1="799" x2="1217.0" y2="989"/><text x="1217.0" y="1007" text-anchor="middle" font-size="11">6.7</text>
<line class="g" x1="82" y1="989.0" x2="1217" y2="989.0"/><text x="74" y="993.0" text-anchor="end" font-size="11">1.00</text>
<line class="g" x1="82" y1="941.5" x2="1217" y2="941.5"/><text x="74" y="945.5" text-anchor="end" font-size="11">2.08</text>
<line class="g" x1="82" y1="894.0" x2="1217" y2="894.0"/><text x="74" y="898.0" text-anchor="end" font-size="11">3.15</text>
<line class="g" x1="82" y1="846.5" x2="1217" y2="846.5"/><text x="74" y="850.5" text-anchor="end" font-size="11">4.22</text>
<line class="g" x1="82" y1="799.0" x2="1217" y2="799.0"/><text x="74" y="803.0" text-anchor="end" font-size="11">5.30</text>
<path class="l" stroke="#dc2626" d="M82.0,812.1 L85.3,812.1 L88.7,812.1 L92.1,812.1 L95.5,812.1 L98.9,812.1 L102.3,812.1 L105.7,812.1 L109.1,812.1 L112.5,812.1 L115.9,812.1 L119.4,812.1 L122.8,812.1 L126.2,812.5 L129.6,812.5 L133.0,812.5 L136.4,812.5 L139.8,812.5 L143.2,813.9 L146.6,813.9 L150.0,813.9 L153.4,813.9 L156.9,813.9 L160.3,814.8 L163.7,814.8 L167.1,814.8 L170.5,814.8 L173.9,814.8 L177.3,814.8 L180.7,815.6 L184.2,815.6 L187.5,815.6 L190.9,815.6 L194.3,815.6 L197.8,815.6 L201.2,815.6 L204.6,815.6 L208.0,815.6 L211.4,815.6 L214.8,815.6 L218.2,815.6 L221.6,816.5 L225.0,816.5 L228.4,816.5 L231.8,816.5 L235.3,816.5 L238.7,816.5 L242.1,818.3 L245.5,818.3 L248.9,818.3 L252.3,818.3 L255.7,818.3 L259.1,818.7 L262.5,818.7 L265.9,818.7 L269.4,818.7 L272.8,818.7 L276.2,818.7 L279.6,818.7 L283.0,819.6 L286.4,819.6 L289.8,819.6 L293.2,819.6 L296.6,819.6 L300.0,819.6 L303.4,819.6 L306.8,819.6 L310.2,822.3 L313.7,822.3 L317.1,822.3 L320.5,822.3 L323.9,822.3 L327.3,824.9 L330.7,824.9 L334.2,824.9 L337.6,824.9 L340.9,824.9 L344.3,824.9 L347.7,825.8 L351.2,825.8 L354.6,825.8 L358.0,825.8 L361.4,825.8 L364.8,825.8 L368.2,825.8 L371.6,828.0 L375.0,828.0 L378.4,828.0 L381.8,828.0 L385.3,828.0 L388.7,828.0 L392.1,829.8 L395.5,829.8 L398.9,829.8 L402.3,829.8 L405.7,831.1 L409.1,831.1 L412.5,831.1 L415.9,831.1 L419.3,831.1 L422.7,831.1 L426.1,831.1 L429.6,832.9 L433.0,832.9 L436.4,832.9 L439.8,832.9 L443.2,832.9 L446.6,833.8 L450.0,833.8 L453.4,833.8 L456.8,833.8 L460.2,833.8 L463.6,833.8 L467.1,833.8 L470.5,836.0 L473.9,836.0 L477.3,836.0 L480.7,836.0 L484.1,836.9 L487.5,836.9 L490.9,836.9 L494.3,836.9 L497.7,836.9 L501.2,836.9 L504.6,837.8 L508.0,837.8 L511.4,837.8 L514.8,837.8 L518.2,837.8 L521.6,839.5 L525.0,839.5 L528.4,839.5 L531.8,839.5 L535.2,839.5 L538.6,839.5 L542.1,839.5 L545.5,839.5 L548.9,839.5 L552.3,840.9 L555.7,840.9 L559.1,840.9 L562.5,841.3 L565.9,841.3 L569.3,841.3 L572.7,841.3 L576.1,841.3 L579.5,841.3 L583.0,841.8 L586.4,841.8 L589.8,841.8 L593.2,841.8 L596.6,842.2 L600.0,842.2 L603.4,842.2 L606.8,842.2 L610.2,843.5 L613.6,843.5 L617.0,843.5 L620.5,843.5 L623.9,843.5 L627.3,844.4 L630.7,844.4 L634.1,844.4 L637.5,844.4 L640.9,844.4 L644.3,844.4 L647.7,844.9 L651.1,844.9 L654.5,844.9 L658.0,844.9 L661.4,844.9 L664.8,844.9 L668.2,844.9 L671.6,843.5 L675.0,843.5 L678.4,843.5 L681.8,843.5 L685.2,843.5 L688.6,843.5 L692.0,842.6 L695.5,842.6 L698.9,842.6 L702.3,842.6 L705.7,842.6 L709.1,842.2 L712.5,842.2 L715.9,842.2 L719.3,842.2 L722.7,842.2 L726.1,842.2 L729.5,841.8 L732.9,841.8 L736.4,841.8 L739.8,841.8 L743.2,841.8 L746.6,841.8 L750.0,841.8 L753.4,841.8 L756.8,841.8 L760.2,841.8 L763.6,841.8 L767.0,841.8 L770.4,841.8 L773.9,841.8 L777.3,841.8 L780.7,841.8 L784.1,840.9 L787.5,840.9 L790.9,840.9 L794.3,840.9 L797.7,840.9 L801.1,839.5 L804.5,839.5 L807.9,839.5 L811.3,839.5 L814.8,839.5 L818.2,839.5 L821.6,839.5 L825.0,838.7 L828.4,838.7 L831.8,838.7 L835.2,838.7 L838.6,838.7 L842.0,838.2 L845.4,838.2 L848.9,838.2 L852.3,838.2 L855.7,838.2 L859.1,838.2 L862.5,838.2 L865.9,838.2 L869.3,838.2 L872.7,838.2 L876.1,838.2 L879.5,838.2 L882.9,838.2 L886.3,838.2 L889.7,838.2 L893.2,838.2 L896.6,837.3 L900.0,837.3 L903.4,837.3 L906.8,837.3 L910.2,835.6 L913.6,835.6 L917.0,835.6 L920.4,835.6 L923.8,835.6 L927.2,835.6 L930.7,835.1 L934.1,835.1 L937.5,835.1 L940.9,835.1 L944.3,835.1 L947.7,835.1 L951.1,834.7 L954.5,834.7 L957.9,834.7 L961.3,834.7 L964.8,834.7 L968.2,834.7 L971.6,834.7 L975.0,834.7 L978.4,834.7 L981.8,834.7 L985.2,834.2 L988.6,834.2 L992.0,834.2 L995.4,834.2 L998.8,834.2 L1002.2,834.2 L1005.6,834.2 L1009.1,834.2 L1012.5,834.2 L1015.9,834.2 L1019.3,834.2 L1022.7,834.2 L1026.1,834.2 L1029.5,834.2 L1032.9,834.2 L1036.3,834.2 L1039.7,834.2 L1043.1,834.2 L1046.6,834.2 L1050.0,834.2 L1053.4,834.2 L1056.8,834.2 L1060.2,834.2 L1063.6,834.2 L1067.0,834.2 L1070.4,834.2 L1073.8,834.2 L1077.2,834.2 L1080.6,834.2 L1084.1,834.2 L1087.5,834.2 L1090.9,835.6 L1094.3,835.6 L1097.7,835.6 L1101.1,835.6 L1104.5,835.6 L1107.9,835.6 L1111.3,836.9 L1114.8,836.9 L1118.1,836.9 L1121.6,836.9 L1125.0,837.3 L1128.4,837.3 L1131.8,837.3 L1135.2,837.3 L1138.6,837.3 L1142.0,838.7 L1145.4,838.7 L1148.8,838.7 L1152.2,838.7 L1155.6,838.7 L1159.0,838.7 L1162.5,841.3 L1165.9,841.3 L1169.3,841.3 L1172.7,841.3 L1176.1,841.3 L1179.5,841.3 L1182.9,843.5 L1186.3,843.5 L1189.8,843.5 L1193.1,843.5 L1196.5,843.5 L1200.0,845.7 L1203.4,845.7 L1206.8,845.7 L1210.2,845.7 L1213.6,845.7 L1217.0,845.7"/>
<line x1="797" y1="813" x2="817" y2="813" stroke="#dc2626" stroke-width="2"/><text x="821" y="817" font-size="10">altitude</text>
<path class="l" stroke="#2563eb" d="M82.0,949.3 L85.3,949.3 L88.7,949.3 L92.1,949.3 L95.5,949.3 L98.9,949.3 L102.3,947.1 L105.7,947.1 L109.1,947.1 L112.5,947.1 L115.9,947.1 L119.4,947.1 L122.8,947.1 L126.2,944.9 L129.6,944.9 L133.0,944.9 L136.4,944.9 L139.8,944.9 L143.2,940.5 L146.6,940.5 L150.0,940.5 L153.4,940.5 L156.9,940.5 L160.3,936.1 L163.7,936.1 L167.1,936.1 L170.5,936.1 L173.9,936.1 L177.3,936.1 L180.7,936.1 L184.2,936.1 L187.5,936.1 L190.9,936.1 L194.3,936.1 L197.8,936.1 L201.2,936.1 L204.6,936.1 L208.0,936.1 L211.4,936.1 L214.8,936.1 L218.2,936.1 L221.6,936.1 L225.0,936.1 L228.4,936.1 L231.8,936.1 L235.3,936.1 L238.7,936.1 L242.1,927.2 L245.5,927.2 L248.9,927.2 L252.3,927.2 L255.7,927.2 L259.1,920.6 L262.5,920.6 L265.9,920.6 L269.4,920.6 L272.8,920.6 L276.2,920.6 L279.6,920.6 L283.0,913.9 L286.4,913.9 L289.8,913.9 L293.2,913.9 L296.6,913.9 L300.0,913.9 L303.4,913.9 L306.8,913.9 L310.2,909.5 L313.7,909.5 L317.1,909.5 L320.5,909.5 L323.9,909.5 L327.3,902.9 L330.7,902.9 L334.2,902.9 L337.6,902.9 L340.9,902.9 L344.3,902.9 L347.7,900.6 L351.2,900.6 L354.6,900.6 L358.0,900.6 L361.4,900.6 L364.8,900.6 L368.2,900.6 L371.6,898.4 L375.0,898.4 L378.4,898.4 L381.8,898.4 L385.3,898.4 L388.7,898.4 L392.1,898.4 L395.5,898.4 L398.9,898.4 L402.3,898.4 L405.7,898.4 L409.1,898.4 L412.5,898.4 L415.9,898.4 L419.3,898.4 L422.7,898.4 L426.1,898.4 L429.6,898.4 L433.0,898.4 L436.4,898.4 L439.8,898.4 L443.2,898.4 L446.6,896.2 L450.0,896.2 L453.4,896.2 L456.8,896.2 L460.2,896.2 L463.6,896.2 L467.1,896.2 L470.5,894.0 L473.9,894.0 L477.3,894.0 L480.7,894.0 L484.1,891.8 L487.5,891.8 L490.9,891.8 L494.3,891.8 L497.7,891.8 L501.2,891.8 L504.6,889.6 L508.0,889.6 L511.4,889.6 L514.8,889.6 L518.2,889.6 L521.6,885.1 L525.0,885.1 L528.4,885.1 L531.8,885.1 L535.2,885.1 L538.6,885.1 L542.1,885.1 L545.5,885.1 L548.9,885.1 L552.3,878.5 L555.7,878.5 L559.1,878.5 L562.5,880.7 L565.9,880.7 L569.3,880.7 L572.7,880.7 L576.1,880.7 L579.5,880.7 L583.0,882.9 L586.4,882.9 L589.8,882.9 L593.2,882.9 L596.6,885.1 L600.0,885.1 L603.4,885.1 L606.8,885.1 L610.2,887.4 L613.6,887.4 L617.0,887.4 L620.5,887.4 L623.9,887.4 L627.3,889.6 L630.7,889.6 L634.1,889.6 L637.5,889.6 L640.9,889.6 L644.3,889.6 L647.7,889.6 L651.1,889.6 L654.5,889.6 L658.0,889.6 L661.4,889.6 L664.8,889.6 L668.2,889.6 L671.6,894.0 L675.0,894.0 L678.4,894.0 L681.8,894.0 L685.2,894.0 L688.6,894.0 L692.0,902.9 L695.5,902.9 L698.9,902.9 L702.3,902.9 L705.7,902.9 L709.1,909.5 L712.5,909.5 L715.9,909.5 L719.3,909.5 L722.7,909.5 L726.1,909.5 L729.5,907.3 L732.9,907.3 L736.4,907.3 L739.8,907.3 L743.2,907.3 L746.6,907.3 L750.0,907.3 L753.4,905.1 L756.8,905.1 L760.2,905.1 L763.6,905.1 L767.0,902.9 L770.4,902.9 L773.9,902.9 L777.3,902.9 L780.7,902.9 L784.1,902.9 L787.5,902.9 L790.9,902.9 L794.3,902.9 L797.7,902.9 L801.1,905.1 L804.5,905.1 L807.9,905.1 L811.3,905.1 L814.8,905.1 L818.2,905.1 L821.6,905.1 L825.0,909.5 L828.4,909.5 L831.8,909.5 L835.2,909.5 L838.6,909.5 L842.0,911.7 L845.4,911.7 L848.9,911.7 L852.3,911.7 L855.7,911.7 L859.1,911.7 L862.5,911.7 L865.9,913.9 L869.3,913.9 L872.7,913.9 L876.1,913.9 L879.5,913.9 L882.9,913.9 L886.3,913.9 L889.7,913.9 L893.2,913.9 L896.6,918.3 L900.0,918.3 L903.4,918.3 L906.8,918.3 L910.2,922.8 L913.6,922.8 L917.0,922.8 L920.4,922.8 L923.8,922.8 L927.2,922.8 L930.7,927.2 L934.1,927.2 L937.5,927.2 L940.9,927.2 L944.3,927.2 L947.7,927.2 L951.1,931.6 L954.5,931.6 L957.9,931.6 L961.3,931.6 L964.8,931.6 L968.2,931.6 L971.6,931.6 L975.0,931.6 L978.4,931.6 L981.8,931.6 L985.2,931.6 L988.6,931.6 L992.0,931.6 L995.4,931.6 L998.8,931.6 L1002.2,931.6 L1005.6,944.9 L1009.1,944.9 L1012.5,944.9 L1015.9,944.9 L1019.3,944.9 L1022.7,944.9 L1026.1,964.8 L1029.5,964.8 L1032.9,964.8 L1036.3,964.8 L1039.7,964.8 L1043.1,964.8 L1046.6,964.8 L1050.0,967.0 L1053.4,967.0 L1056.8,967.0 L1060.2,967.0 L1063.6,962.6 L1067.0,962.6 L1070.4,962.6 L1073.8,962.6 L1077.2,962.6 L1080.6,962.6 L1084.1,962.6 L1087.5,962.6 L1090.9,964.8 L1094.3,964.8 L1097.7,964.8 L1101.1,964.8 L1104.5,964.8 L1107.9,964.8 L1111.3,973.7 L1114.8,973.7 L1118.1,973.7 L1121.6,973.7 L1125.0,975.9 L1128.4,975.9 L1131.8,975.9 L1135.2,975.9 L1138.6,975.9 L1142.0,973.7 L1145.4,973.7 L1148.8,973.7 L1152.2,973.7 L1155.6,973.7 L1159.0,973.7 L1162.5,969.3 L1165.9,969.3 L1169.3,969.3 L1172.7,969.3 L1176.1,969.3 L1179.5,969.3 L1182.9,969.3 L1186.3,969.3 L1189.8,969.3 L1193.1,969.3 L1196.5,969.3 L1200.0,964.8 L1203.4,964.8 L1206.8,964.8 L1210.2,964.8 L1213.6,964.8 L1217.0,964.8"/>
<line x1="902" y1="813" x2="922" y2="813" stroke="#2563eb" stroke-width="2"/><text x="926" y="817" font-size="10">(thr-1600)/20</text>
<text x="18" y="894.0" transform="rotate(-90 18 894.0)" text-anchor="middle" font-size="12">m / scaled PWM</text>
</svg>